<?xml version="1.0" encoding="iso-8859-1"?>
<!-- Generator: Adobe Illustrator 18.0.0, SVG Export Plug-In . SVG Version: 6.00 Build 0)  -->
<!DOCTYPE svg PUBLIC "-//W3C//DTD SVG 1.1//EN" "http://www.w3.org/Graphics/SVG/1.1/DTD/svg11.dtd">
<svg version="1.1" id="Capa_1" xmlns="http://www.w3.org/2000/svg" xmlns:xlink="http://www.w3.org/1999/xlink" x="0px" y="0px"
	 viewBox="0 0 463.589 463.589" style="enable-background:new 0 0 463.589 463.589;" xml:space="preserve">
<g>
	<path d="M389.678,183.513h-19.276v-19.337c0-8.522-6.897-15.42-15.421-15.42c-8.524,0-15.42,6.897-15.42,15.42v19.337h-23.794
		V83.971C315.766,37.588,278.177,0,231.794,0s-83.971,37.588-83.971,83.971v99.542h-23.824v-19.337
		c0-8.522-6.897-15.42-15.421-15.42c-8.524,0-15.421,6.897-15.421,15.42v19.337H73.912c-8.523,0-15.421,6.898-15.421,15.421
		c0,8.525,6.897,15.42,15.421,15.42h19.246v12.049c0,62.799,41.985,115.867,99.332,132.885v90.085
		c0,7.86,6.355,14.217,14.185,14.217h50.178c7.861,0,14.216-6.356,14.216-14.217v-90.085
		c57.345-16.988,99.332-70.086,99.332-132.885v-12.049h19.276c8.523,0,15.42-6.895,15.42-15.42
		C405.098,190.41,398.201,183.513,389.678,183.513z M339.56,226.402c0,59.424-48.341,107.795-107.766,107.795
		c-59.425,0-107.795-48.371-107.795-107.795v-12.049h23.824v4.368c0,46.384,37.588,83.972,83.971,83.972
		s83.971-37.588,83.971-83.972v-4.368h23.794V226.402z"/>
</g>
<g>
</g>
<g>
</g>
<g>
</g>
<g>
</g>
<g>
</g>
<g>
</g>
<g>
</g>
<g>
</g>
<g>
</g>
<g>
</g>
<g>
</g>
<g>
</g>
<g>
</g>
<g>
</g>
<g>
</g>
</svg>
